<?xml version="1.0" standalone="no"?>
<!DOCTYPE svg PUBLIC "-//W3C//DTD SVG 20010904//EN"
 "http://www.w3.org/TR/2001/REC-SVG-20010904/DTD/svg10.dtd">
<svg version="1.0" xmlns="http://www.w3.org/2000/svg"
 width="141.000000pt" height="141.000000pt" viewBox="0 0 141.000000 141.000000"
 preserveAspectRatio="xMidYMid meet">
<metadata>
Created by potrace 1.11, written by Peter Selinger 2001-2013
</metadata>
<g transform="translate(0.000000,141.000000) scale(0.100000,-0.100000)"
fill="#000000" stroke="none">
<path d="M345 1090 c-20 -52 -43 -109 -51 -127 -8 -17 -14 -35 -14 -40 0 -6
-7 -23 -15 -40 -8 -17 -26 -59 -39 -94 -12 -35 -69 -182 -125 -327 -56 -144
-100 -266 -97 -270 3 -5 250 -9 550 -9 l545 0 35 106 c19 58 89 272 155 474
67 203 121 381 121 395 l0 27 -514 0 -514 0 -37 -95z"/>
</g>
</svg>
